<?xml version="1.0" encoding="UTF-8"?>
<svg version="1.1" viewBox="0 0 2048 324" width="1280" height="1280" xmlns="http://www.w3.org/2000/svg">
<path transform="translate(353,20)" d="m0 0h8l2 2-3 2 1 3h-3l-2 7-4 5 5 1-1 5-7-2-2 9h-1v-6l-1-2-3 6-4 10-3 7-2 4 3-1 3-6 3 1v3 2l-3 1 1 2-1 2-4 1-5 6-3 3h2l5-5 1-3 3-1-1 4-4 5-3 6h-5l-7 20v3l3-5 4-12 3-3 1 3-3 6 3-3 4-9 1-4 2-3 5-1-1 4h-3l-1 5-5 11-4 2-2 4-1 3 6-6 3-1 3-5 1 3-5 9-7 7 5-1 1-4 2-1-1 6-4 10-2 4h-2l-1 5-3 1-2 5-5 6h-2l-1 2 1-6 5-9v-2l-3 3-2 1-6 25-2 4 5-2 5-9 5-1-1 3-3 3-4 7 5-3 3-5 1 3-6 10-1 5 4 4 7-10 11-6-4-8 3-6 5-2 13-1 8 2 5 3 3 3-1 5-3 4 11 8 13 4 9 2 5 5 3 10-4 7-5 6 1 3 8 5 2 2 2 9-3 6-7 6-4 3-4 9-2 2-6-1-4-7-3-5h-12l-5-3-1-2v-6l3-5v-4l-2-1v-2l-6-2-8-5-14 7-7 5-6 3-9 6-7 5-8 4 5 5 1 3h2v2l4 2 3 3-1 2-16-14-4 1-11 8-7 4-2 2 11 9-1 2-12-9-4 1 6 5-3 1-6-4-4 4-17 11-9 5-10 7-20 13-10 6 2 4-4-2-6-5-7-8-10-12-10-15-13-22-8-16-11-24-4-10 1-2 8 16 11 25 13 23 5 7 3 5v2h2v2l4 2 4 1v2h7l5 3v2h3v-2l4-1v2l5-3 4 1 2 1v2h2l1-3 5 1 5 2 1-2 1 1 5-5 3 1v-2l6 2-1-3 4-1 8-4 6-5 4-1 2-2 3-2-1-2 3-1 2 1v-3l11-6 5-5 3-1 2 1v-3l5-3 1-3h3v-3h2l-1-3 7-2 1-4-1-4 3-3-2-1v-13l1-12v-29l-5-10-8-14 1-2 11 18 4 5-1-3v-8l1-3h4l2-12-3-1 1-11 4-15 6-17 7-20 10-25 6-10 7-9 7-8zm3 1-4 4-7 9 4 1 6-10v-2l3-1zm2 4m-14 10m-1 1m-1 1m5 0v3zm-6 1m-1 1m11 0m-12 1-4 6-4 11-4 9-6 15-6 19-3 5-4 16v6l2-1 3-15 5-13 2-3 3-10 5-15 6-10 6-18zm11 0 1 2zm3 1m-22 32m-15 42 1 2zm4 7m0 2-3 4v5l3-4 2-5zm-12 4m5 2-1 3h3v-3zm-12 26 1 2zm0 17m2 0m26 1 1 3 1-3zm38 2m-12 4m20 3 1 4h3l-1-3zm-53 2-1 3h3v-3zm18 2-1 3 2 1 4 1 1-4-1-1zm12 0-1 1v5l2 1 1-7zm12 0 1 3h2v-3zm-8 1-2 5v3l5-5v-3zm-2 25v2l8 5h2l1-3-4-3zm51 11-9 9h3l7-7zm-45 7 2 4 5 1 8-1-1-2h-8zm34 3 1 2 1-2zm-103 1m-7 7m96 0v3l6 5 2-3-6-4zm-107 9m-108 33m7 0m1 1m19 0m-2 1m4 0m9 0m-2 1m3 0v2l2-1z" fill="#E68239"/>
<path transform="translate(200,13)" d="m0 0 6 5 7 4 9 9 8 7 9 11 9 14 9 17-1 2-8-13-5-8v-2h-2l-4-4-2-1-2-3-5-2-4-2h-7v-2l-4 1-1-2-7 3-8-1-9 2-1-1-2 4h-2v2l-10 3v2l-4-1-2-5v3l1 3-3 3-8 1-2 4-4 1-2 5-4 5-3-1-1-2-5 4h-3l-1 3h-8v2l-5 4-4 8-4 3-7-2-4-6 1-3 5-1 1-2-5 1 1-3 4-2 1-2-6 3-1 2-6 3 4 5 2 4v4l-9 5h-6l-6-2 2 3h3l1 4-4 2v2l-6 2v4l-3 3 3 5 4 5v2h2l10 13 11 19 9 17 2 5-1 3-11-22-12-19-9-12-10-11-11 7-12 9 3 9 4 5 16 8 16 7 6 4 6 7 4 11v21l-2 4h-3l2-14v-8l-4-11-5-6-17-9-15-6-8-5-6-9-1-7-3 3-8 1-6-4-3-6v-6l3-5 2-1h7l5 3 3 5 6-5v-2l-4 2-6-1-4-4 2-4-11 6-6 2v-7l3-5 1 2v3l11-7h7l3-3-8-1-10 3 5-5 10-7 25-16 46-30 21-13 19-12 13-8 11-6 4-1h8l5 1zm-16 3-2 3 6-2zm-8 5m13 23m29 0m-33 1m-34 4v2l2-1zm21 0v2h2v-2zm-24 1 1 2zm8 0m80 1m-87 1 1 2 4-1zm-5 1m16 3m-20 1-2 2h4v-2zm7 2 1 2zm-13 1v2l-5 1v2l-5 1v2l-5 2v2l-4-1-3 3v2l-3 1h4v2l6-1 5-4v2h2l1-5 5-1 1-2 5-2 1-3 4-1v-2l-5 1zm15 2 1 2zm-9 2 4 7h2l-1-4-2-3zm-11 8 3 3v-3zm-21 9-1 3 5 1-1-4zm4 4m1 4m-4 1-2 3h3zm6 1m-30 2m-1 1m-5 1-5 5 4-1 3-1 1-3zm2 3v3l2-1zm-2 3m-10 1 2 2v-2zm-2 2-1 2h2zm-6 3m-1 1m-9 4-4 5 6 8 2 5 4-1 8-6v-2l-11-8zm-28 10m9 11-2 1 1 5h5l2-3-4-3zm-2 9m7 0-6 1 1 2h6l1-3z" fill="#E8853A"/>
<path transform="translate(211,102)" d="m0 0 3 1 6 14 4 21 4 10 7 9 10 9 11 8 6 12 2 7-1 14-3 22-6 12-11 12-11 7-13 5-16 2-11-2-10-5-5-4-7-10-1-3v-7l5-9 7-7 16-10 19-9 6-2h2v-7h2l1 6 3-1 1-5h2l1 4h3v-7l4 4v2l4-1-3-7-16-8-8-7-7-14-1-5v-13l3-12v-15l-2-6zm35 86 2 4 4 2 4-1-4-3-3-2zm-8 7m14 9-18 4-13 5-15 8-9 4-6 5v7l1 1-11 3-1-2v3l6 1 15-3 18-7 13-7 11-8 6-5 5-7v-2zm-63 27-6 5 2 1 3-2v-2l3-1z" fill="#B2422D"/>
<path transform="translate(193,20)" d="m0 0 8 1 7 3 13 9 22 22 8 13 6 12-1 2-8-13-5-8v-2h-2l-4-4-2-1-2-3-5-2-4-2h-7v-2l-4 1-1-2-7 3-8-1-9 2-1-1-2 4h-2v2l-10 3v2l-4-1-2-5v3l1 3-3 3-8 1-2 4-4 1-2 5-4 5-3-1-1-2-5 4h-3l-1 3h-8v2l-5 4-4 8-4 3-7-2-4-6 1-3 5-1 1-2-5 1 1-3 4-2 1-2-6 3-1 2-6 3 4 5-1 2-1-3-6-1-2 5-5 5-2 1-1-4-6 2 5-5 11-7 11-8 18-12 23-14 9-6 20-14 12-7 8-4zm-4 24m29 0m-33 1m-34 4v2l2-1zm21 0v2h2v-2zm-24 1 1 2zm8 0m80 1m-87 1 1 2 4-1zm-5 1m16 3m-20 1-2 2h4v-2zm7 2 1 2zm-13 1v2l-5 1v2l-5 1v2l-5 2v2l-4-1-3 3v2l-3 1h4v2l6-1 5-4v2h2l1-5 5-1 1-2 5-2 1-3 4-1v-2l-5 1zm15 2 1 2zm-9 2 4 7h2l-1-4-2-3zm-11 8 3 3v-3zm-21 9-1 3 5 1-1-4zm4 4m1 4m-4 1-2 3h3z" fill="#FEF49B"/>
<path transform="translate(381,178)" d="m0 0 13 2 4 2 4 6 2 8-4 7-5 6 1 3 8 5 2 2 2 9-3 6-7 6-4 3-4 9-2 2-6-1-4-7-3-5h-12l-5-3-1-2v-6l3-5 3-2 1-6-2-5 3-6 5-5 8-10 1-10zm24 46-9 9h3l7-7zm-45 7 2 4 5 1 8-1-1-2h-8zm34 3 1 2 1-2zm-14 8v3l6 5 2-3-6-4z" fill="#4A365B"/>
<path transform="translate(353,20)" d="m0 0h8l2 2-3 2 1 3h-3l-2 7-4 5 5 1-1 5-7-2-2 9h-1v-6l-1-2-3 6-4 10-3 7-2 4 3-1 3-6 3 1v3 2l-3 1 1 2-1 2-4 1-5 6-3 3h2l5-5 1-3 3-1-1 4-4 5-3 6h-5l-7 20v3l3-5 4-12 3-3 1 3-3 6 3-3 4-9 1-4 2-3 5-1-1 4h-3l-1 5-5 11-4 2-2 4-1 3 6-6 3-1 3-5 1 3-5 9-7 7 5-1 1-4 2-1-1 6-4 10-2 4h-2l-1 5-3 1-2 5-5 6h-2l-1 2 1-6 5-9v-2l-3 3-2 1-6 25-2 4 5-2 5-9 5-1-1 3-3 3-4 7 5-3 3-5 1 3-6 10-1 5-4 1h-2l-3 10-2 1-2-8v-17l1-6h-1v-8l1-3h4l2-12-3-1 1-11 4-15 6-17 7-20 10-25 6-10 7-9 7-8zm3 1-4 4-7 9 4 1 6-10v-2l3-1zm2 4m-14 10m-1 1m-1 1m5 0v3zm-6 1m-1 1m11 0m-12 1-4 6-4 11-4 9-6 15-6 19-3 5-4 16v6l2-1 3-15 5-13 2-3 3-10 5-15 6-10 6-18zm11 0 1 2zm3 1m-22 32m-15 42 1 2zm4 7m0 2-3 4v5l3-4 2-5zm-12 4m5 2-1 3h3v-3zm-12 26 1 2z" fill="#E1462A"/>
<path transform="translate(1041,87)" d="m0 0 17 1-2 4v45l6 3-1 2h-27l-4-2 1 4-7-1-1 4-3-1-3-12-5-18v-2l-12 1v21l4 1-1-3v-9l1-9h3v3l-1 4v15l5 2v2h-21l-1-1v-5l2-1 1-18h-5v-4h5l-1-20-1-3 1-1 7-1h22l8 4 4 5v8l-5 6-6 1-3 1 1 5 5 10 8 10 1 1h6l5-3v-44l-3-3zm-41 4v21h3l1-21zm6 2-1 3v15l9-1 5-3v-2h2l1-2v-7l-3-3z" fill="#0B0609"/>
<path transform="translate(261,208)" d="m0 0h1l-1 16-3 9-5 9-9 10-10 7-15 6h-14l-20-8-6-4v-2l19-3 15-4 3-2h5v-2l11-6 4-4 7-4 9-11 3-4 5-1z" fill="#B13F2C"/>
<path transform="translate(936,87)" d="m0 0h12l6 1-2 4-1 18h16l-1-20-3-1 1-2 16 1-1 3h-2v47l6 2v2h-48l1-4 2-7v-15h-6l2-4 4-1v-19l-3-4zm11 3-1 2v17h1l2-18zm-1 24v19h1v-17l4-1zm5 2v22l9 3 7-6v-19z" fill="#0A0507"/>
<path transform="translate(585,87)" d="m0 0 16 1-1 22h15l-1-19-2-1v-2l2-1h12l2 1-2 6v44l5 2v2h-48l1-4 2-2 1-21h-7v-2l3-2h4l-1-20-3-3zm11 3-2 3v16h3l1-19zm-1 24-1 1v21l3 1v-22zm5 2v22l6 3 4-1 4-4 1-4v-16z" fill="#0B0605"/>
<path transform="translate(46,111)" d="m0 0h5l-2 4v3l5 7 1 5 7-4 6-5 5 4 5 5 2 4h2l10 13 11 19 9 17 2 5-1 3-11-22-12-19-9-12-10-11-11 7-12 9 3 9 4 5 16 8 16 7 6 4 6 7 4 11v21l-2 4h-3l2-14v-8l-4-11-5-6-17-9-15-6-8-5-6-9-1-7-3 3-8 1-6-4-3-6v-6l3-5 2-1h7l5 3 3 5 6-5v-2l-4 2-6-1-4-4 2-4-11 6-6 2v-7l3-5 1 2v3l11-7h7zm-23 11m9 11-2 1 1 5h5l2-3-4-3zm-2 9m7 0-6 1 1 2h6l1-3z" fill="#E04028"/>
<path transform="translate(1342,87)" d="m0 0 26 1 8 5 5 5 3 9v14l-3 9-5 7-8 4-4 1h-24l1-4 2-3v-43l-2-4zm9 4-1 23v23h3v-44l3 1v39l1 4 7-1 6-7 2-15-1-13-4-6-8-3z" fill="#0A0505"/>
<path transform="translate(1865,88)" d="m0 0h23l8 4 5 6v6l-6 8-3 1 1-4-4 3-3 1 3 9 6 11 5 7-1 4-4-1-3 3-4-1-5-19-4-10v-2l-9 1-2 1-1 20h2v-17l1-2 8-1v2l-5 2v19l6 1v2h-23l1-5 2-2v-13l-1-5-4-1v-2l5-2v-18l-1-4zm3 3-1 1v20l2-1 1-20zm4 1v19h7l8-4 3-3 1-4-2-5-2-1-9-1zm10 0 3 2 2-1z" fill="#0A0506"/>
<path transform="translate(1612,88)" d="m0 0h23l8 4 4 4 1 8-7 9h-2v-3l-6 3 1 4 8 16 6 9-8 2-3 3-2-2-4-16-5-13v-2l-11 2-1 20h2v-18l1-1h7l-4 3v18l6 2v2h-22l-1-3 3-4v-15l1-3h-6v-3l5-2v-22zm3 3-1 1v20l2-1v-10l1-9zm4 1v19l2 1 10-3 6-5 1-4-2-5-4-2-2 1z" fill="#0C0607"/>
<path transform="translate(1723,87)" d="m0 0h15l3 1v2l-4 1 1 8 6 24 3-8 6-22 2-6 5 1 8 30 1 6h2l1-5 3-4h2l2-6 4-9 1 3-6 15h-2l-1 7-2 9 2 3 7 3v2h-21v-5l2-2-2-11-6-20-1 9-7 18 2 5 7 4v2h-20l-1-3 3-4-4-16-7-25-4-5z" fill="#0B0607"/>
<path transform="translate(710,88)" d="m0 0h22l8 5 3 3 1 7-4 7-2 2-3-1-5 2 1 4 5 12 7 10 1 3h-2v2h-6l-1 3-4-2-4-18-3-8v-3l-2-1h-8l-2 1-1 20 4 1-1-2v-14l1-5 4 1-1 3-1 18 5 2v2h-21l-1-5 3-2v-18h-5v-3l5-2v-17l-1-5 1-1zm1 3v21h3l1-21zm15 1-2 1h-7v18l9-1 7-6 1-5-2-5-3-2z" fill="#090506"/>
<path transform="translate(1290,87)" d="m0 0h14l5 1 1 6 2 6-3-3-3-5v-2h-2l19 38v-35l-4-5 1-1h9l4 1-1 3-2 1-1 6-1 44h-9l-3-9-10-21-4-8v33l6 3v2h-70v-4l48 1 5-4 1-43zm4 7v30l1 9 4 2-1-36-3-5z" fill="#0A0506"/>
<path transform="translate(1192,88)" d="m0 0h23l6 3 5 5 1 9-5 6-6 1-3 1 1 5 7 13 7 8 2 2h-4l-1 3h-5l-3 3-3-3-5-21-3-8h-11v20l2 1 1-17 1-4 3 1-1 6v16l5 2v2h-21l-1-5 2-2 1-19-6 1 1-4 4-1v-22zm3 3-1 1v20l4-1 1-19zm5 2v18l9-1 8-7v-7l-5-3z" fill="#090506"/>
<path transform="translate(1399,88)" d="m0 0h23l8 4 4 4v10l-5 6-2-1-4 1-3 1 3 9 7 11 5 7-1 3-7 2-1 2-4-2-6-24-2-7-11 1v20l3 2v-20h4l-1 3-1 18 6 2-1 2h-21l-1-5 3-1v-19h-5l1-4 4-1v-17l-1-6zm3 3v21h3l1-5 1-15zm16 1v2l-3-1h-7v18l8-1 6-4 3-4v-6l-5-4z" fill="#0A0505"/>
<path transform="translate(1811,87)" d="m0 0h10l8 1v2l-5 1 8 16 1-3 4 1 3 8 4 1v2h-4l1 10-2-2-3-11h-2l4 15 5 9 10 4v1h-24l-1-5 3-1-5-15-4 4-1 4-5-2-6-7v-2h-2l-2 7v10l7 5v2h-22l2-5 6-8 5-12v-3l-4-2 1-6 3-2 2 3 7-14zm4 8-5 14 1 4 5-10-2 6-1 1 1 7 4 3 6-4-2-9-6-12zm18 16 1 2z" fill="#090506"/>
<path transform="translate(655,87)" d="m0 0h11l8 1v2l-4 1 1 5 3 9v2l6-3 3 3-1 5 5 2v2l-7-1-2-2 3 12 5 12 10 4v1h-24l-1-4 2-2-1-7-2-8-5 4-1 5-7-6-4-5-2-1-2 9-1 6 5 5 4 2v2h-22l1-5 4-2 2-5 5-11 1-6-5-1 2-5 2-2h4l5-10-1-5zm4 9-5 13-1 3 4-1 1 2-3 1 4 5 5-1 3-2-1-7-5-12z" fill="#0B0606"/>
<path transform="translate(427,87)" d="m0 0h12l8 1-1 2-4 2 4 14 9-1 1 4-2 1-1 3 6-1 1 4-8-1v-2h-2l6 21 4 4 7 2 1 2-4 1-20-1-1-3 3-5-4-11v-2l-5 4-1 5-7-6-5-6-2 3-2 10 2 5 7 4v2h-22l-1-2 7-8 4-8 2-6v-4l-3-2 1-5 2-2 5-1 5-10-2-4zm4 10-3 9-2 4 1 4 4 5 5-1 4-2-2-8-5-11z" fill="#0A0506"/>
<path transform="translate(491,87)" d="m0 0h10l7 1v2l-5 1 4 8 3 7 6-1 3 8 4 1v2h-4v8l-2-2-2-9-2 1 5 16 4 6v2l9 3v1h-24l1-6h2l-5-15-2-1-2 4-1 6-5-3-6-8-2-1-2 8v9l7 5v2h-22l1-4 6-7 6-14v-3l-4-2 1-6 3-2 2 3 7-14v-3h-2zm3 8-5 14 1 4 5-10-1 4-2 3v5l5 5 6-4-2-9-6-12z" fill="#0B0606"/>
<path transform="translate(825,87)" d="m0 0h10l8 1v2l-5 2 6 14 6-1 3 8 5 1v2l-6-1 2 10-3-4-2-8-2 1 5 16 4 6 2 2 7 2v2h-23l-1-4 1-2h2l-5-15-4 4-1 4-5-2-6-8-2-1-2 10v7l7 5v2h-21l-1-2 7-9 6-13v-4l-4-2 1-5 1-2h3v3h2l2-6 4-9-2-5zm3 9-5 14 1 3 2-2 1 5 4 4 6-4-2-9-5-11z" fill="#080405"/>
<path transform="translate(1462,87)" d="m0 0h14l6 1v2l-5 1 2 6 1 6 1 3 9-1v4l-3 5h-2l5 18 4 5 9 3 1 2-7 1-18-1-1-4 4-2-5-13v-2l-5 5-2 4-12-12-2 8v8l4 4 5 2-1 2h-23l2-4 6-7 5-13v-4l-3-3 1-5h6l6-12-2-4zm5 10-5 12-1 4 6 7 8-4-2-9-5-10z" fill="#0A0606"/>
<path transform="translate(309,181)" d="m0 0 4 2 16 17 10 8-2 3-11 6-15 9-17 11-5 2-1-5 7-2 1-4-1-4 3-3-2-1v-13l2-23h1l1 5v14l-1 20 2-1v-8l3-10v-16l4-6z" fill="#FEF49B"/>
<path transform="translate(1556,160)" d="m0 0h26l4 8 5 18 2 4 8-23 2-6 7-1 1 3-12 35-5 3-7-2-6-16-5-18-1 2-4 1h-7v32l-7 1-2-6-1-27-10-1v-6z" fill="#0E0707"/>
<path transform="translate(1693,87)" d="m0 0h24l2 2-4 4v7l-4-2-7-5-10-1v7h-3v-6l-2 1v7l5 4 16 5 8 4 5 6v9l-6 9-9 4h-29l1-4h5l-6-1 1-5 3-8 4 5 4 4 6 4 10-1 6-5v-5l-6-5-18-5-7-6-1-2v-12l3-5 5-3z" fill="#090506"/>
<path transform="translate(1553,87)" d="m0 0h12l5 1 1 47h-2l-1-6-1-39-1 1v42l2 3 8 1 6-2 2-5 1-39-4-2 2-2h8l7 3v1h-6l-2 37 2-35h2v15l-1 26-4 5-6 3h-16l-7-6-3-6-1-7v-30l-3-3z" fill="#150B0C"/>
<path transform="translate(1100,87)" d="m0 0h21l2 1-2 5-1 7-4-2-5-4-2-1-9-1-1 7-2 1 1-8-3 3v7l7 4 16 5 9 6 2 3v8l-5 8-7 5-3 1h-29l-1-4 24-1 8-3 2-3-1-7-8-4-16-5-6-5-1-3v-11l5-6 3-2z" fill="#090406"/>
<path transform="translate(1134,87)" d="m0 0 14 1 1 1 1 41 1 5-5-5-1-5v-34l-1 2v35l3 7 9 2 6-2 2-6v-37l-3-4 2-1 12 1 1 3-1 34-2 9-4 5-7 3h-15l-7-6-3-6-1-6-1-33-3-3zm36 4-2 3-1 41 3-2 1-3 1-26v-13z" fill="#100808"/>
<path transform="translate(1519,87)" d="m0 0h23l1 4-3 2-1 6h2v2l-4-2-8-6-10-1v7l-3 1v-7l-2 1v6l5 5 17 5 8 5 4 4v11l-4 6-5 4-5 2-28 1-1-4 27-3 5-2 1-7-1-4-5-2-19-6-5-5-2-4v-9l4-6 4-3z" fill="#0B0708"/>
<path transform="translate(902,87)" d="m0 0h22l2 1-2 4-1 1v7l-5-2-6-5-10-1v7h-3v-6l-2 1v7l5 4 18 6 8 5 1 3h2v10l-4 6-6 5-5 2h-28l-2-3 1-1 24-1 7-3 3-3v-5l-5-4-21-7-6-7v-12l3-5 5-3z" fill="#090506"/>
<path transform="translate(179,39)" d="m0 0 4 1 2 6 2 1-2 4h-2v2l-10 3v2l-4-1-2-5v3l1 3-3 3-8 1-2 4-4 1-2 5-4 5-3-1-1-2-5 4h-3l-1 3h-8v2l-5 4-4 8-4 3-7-2-4-6 1-3 5-1 1-2-5 1 1-3 4-2 1-3h5v2l7-3 4-2v2h2l-1-3h2v-2l5-1 1-3 9-1 2 2v3h2l-2-4v-12h8l19-10 6-4h2zm-7 10v2h2v-2zm-12 7m-13 3 1 2zm2 3 1 2zm-20 10 3 3v-3zm-21 9-1 3 5 1-1-4zm4 4m1 4m-4 1-2 3h3z" fill="#E27E38"/>
<path transform="translate(117,198)" d="m0 0 2 1 8 18 7 15 8 16 8 14 5 7 3 5v2h2v2l4 2 4 1v2h7l5 3v2h3v-2l4-1v2l5-3 4 1 2 1v2h2l1-3 5 1 5 2 1-2 1 1 5-5 3 1v-2l4 2-11 8-20 13-6 4h-5l-11-10-11-14-9-14-12-20-8-16-11-24-4-10zm48 86m7 0m1 1m19 0m-2 1m4 0m9 0m-2 1m3 0v2l2-1z" fill="#FDF39A"/>
<path transform="translate(1236,87)" d="m0 0h42v3l-4 3v6l-10-5-8-2v19l5-2 4-7 3-1v19l-5-2-2-2-5-1v20l13-2 1-5 5 2 1 3 3 3-25 1-17-1 2-1v-20l-4-1v-3l4-1v-19l-3-2zm11 4v19h6l1-19zm1 22-1 8v14h5l1-1v-21z" fill="#120807"/>
<path transform="translate(548,88)" d="m0 0h20l8 1-2 4-1 1-1 7-4-2-5-5-7 1-5 6-2 13 2 12 2 9-3-3-3-7-1-5v-16l4-9 4-4-5 2-4 10v21l4 12 4 2h10l5-5 2-4 1-9 4 2 1 7-3 7-7 6-13 1-7-2-8-8-3-7-1-5v-11l2-9 6-9z" fill="#0D0707"/>
<path transform="translate(1762,160)" d="m0 0 7 1 6 9 8 16 1-25 4-1 3 1v38l-3 2-6-1-7-10-9-16-1 26-5 1-2-3v-36z" fill="#070404"/>
<path transform="translate(1439,160)" d="m0 0 6 1 8 14 6 11 1-25h7v39h-9l-6-9-10-17v11l-1 15h-7v-39z" fill="#060304"/>
<path transform="translate(805,73)" d="m0 0 2 1-7 7-8 12-11 17-3 5-1 4v13l3 5 9 3v2h-27l6-8v-18l-10-16-8-10-1-3h18l1 3-5 1 6 11 5 7 3-1 11-18v-7l-1-3 16-6z" fill="#0C0606"/>
<path transform="translate(376,176)" d="m0 0 5 1-1 4-2 4h-2v2h3l-1 6-8 9-6 7-1 6-9-2v2l5 2 5 3-1 4-2 1-1-4-2-1v-2l-6-2-8-5-3-2-2-4 6-1h10l4 1-1-3h-6l-6-2-5 1 1-3 16-1 10-1v-2l-3 1-1-3-7 2 2-6h-3l-1 5-2 1 1-7-2 1v6h-8v2h-3l-5-5-3-2 4-4 7-1v-4h2l2 7 4-2 1-7h3l-1 3 6 3v3h3l1 2 3 1v-4l-4-1-1-3 7-1 5 1v-5zm-36 11-1 3 2 1 4 1 1-4-1-1z" fill="#D63E27"/>
<path transform="translate(1664,160)" d="m0 0h14l5 3 1 6-8-1h-9l-6 2-2 7v8l3 6 3 2h9l1-9h-6l-2-1v-4l3-1h13l1 1v17l-3 4-4 1h-13l-7-3-6-7-1-3v-14l3-6 5-5z" fill="#080405"/>
<path transform="translate(1932,87)" d="m0 0 12 1-2 4-1 33 2 6-2 2-1-1-1 5-10 5h-13l-6-7-4-8v-4l9-6 1 3 1 11 2 5 4 1 5-2 2-4v-39l-4-4z" fill="#090505"/>
<path transform="translate(1832,160)" d="m0 0h4l1 6v10h15v-15l7-1 1 1v39h-7l-1-10v-6l-15-1v17h-7l-1-1v-38z" fill="#0D0707"/>
<path transform="translate(1947,160)" d="m0 0h7l2 1 12 35-1 5-7-1-2-6v-2h-17l-2 8-6 1-1-4 10-30 3-6zm1 10-4 13v2h11l-3-10-2-5z" fill="#0C0606"/>
<path transform="translate(1625,160)" d="m0 0h7l3 2 12 36v2l-4 1-5-2-3-7h-15l-2 8h-8l7-23 6-15zm2 9-5 16h11l-1-7-4-9z" fill="#090505"/>
<path transform="translate(1390,160)" d="m0 0h7l3 4 11 32-1 5-7-2-3-7h-14l-3 8h-8l1-5 11-33zm3 10-5 10-1 5h11l-2-10-2-5z" fill="#080405"/>
<path transform="translate(211,102)" d="m0 0 3 1 6 14 4 21 4 10 7 9 8 7-1 5h2l-1 3-6-1-9-6-6-7-4-8-2-9-1 11-3 6h-1l-1-5v-13l3-12v-15l-2-6z" fill="#E14329"/>
<path transform="translate(1883,160)" d="m0 0h5l3 4 11 32-1 5-6-1-2-2-2-6h-14l-3 8-4 1-4-1 3-12 10-27zm0 9-5 14v2h11l-2-9-3-7z" fill="#090505"/>
<path transform="translate(1732,160)" d="m0 0h7l3 5 10 28 1 7-3 1-5-1-3-8h-14l-4 8h-7l1-7 11-31zm2 9-4 10-1 6h11l-1-6-4-10z" fill="#080406"/>
<path transform="translate(1527,160)" d="m0 0h7l4 8 10 30v2h-8l-2-5v-3h-15l-4 8h-7l1-7 11-31zm2 9-5 13v3h11l-3-13z" fill="#070405"/>
<path transform="translate(1657,87)" d="m0 0h13l2 1-1 31v19l5 2v2h-26l-3-5 1-2 5 5 5-3 1-2v-43l-3-4z" fill="#0A0507"/>
<path transform="translate(1953,87)" d="m0 0h12l4 1-1 3-1 45v2l6 2v2h-23l2-4 3-2 1-45-4-1z" fill="#160A07"/>
<path transform="translate(1041,87)" d="m0 0 17 1-2 4v45l6 3-1 2h-27l-2-2 9-2 3-2v-44l-3-3z" fill="#070303"/>
<path transform="translate(91,89)" d="m0 0 6 1 4 5v4l-9 5h-6l-6-2 2 3h3l1 4-4 2v2l-6 2v4l-3 3 3 5-1 2-4-5-10-6-5-4-4-3 18-11 5-3v2l6-1v3h2l2-5 5-5zm-12 12m-10 1 2 2v-2zm-2 2-1 2h2z" fill="#FCEE95"/>
<path transform="translate(244,201)" d="m0 0 5 1 3 3-18 4-13 5-15 8-9 4-5 5-1 6 2 1-9 3-4 1 12-1 12-3 15-6 13-7 3-2 3 1-17 10-20 8-12 3h-10l-2-2v-6l2-4 3-3h2v-2l3-3h2l1-3 9-5 12-5 17-6 9-4zm-55 30-6 5 2 1 3-2v-2l3-1z" fill="#E78B3F"/>
<path transform="translate(1805,160)" d="m0 0h10l5 2v7l-8-2-6 1 1 5 13 8 2 3v9l-5 6-5 2h-10l-4-2-2-4v-3l9 2 7-1 1-5-8-5-6-4-2-4v-7l4-6z" fill="#080405"/>
<path transform="translate(261,208)" d="m0 0h1v6h-3l-2 3-2 7-3 1-4-1-2 5-3 1v2l-6 4-6 3-10 6h-5v2l-24 6-2 1h15l9-2 3 9-2 2-11 1-15-5-9-5-1-3 19-3 15-4 3-2h5v-2l11-6 4-4 7-4 9-11 3-4 5-1z" fill="#BB6827"/>
<path transform="translate(180,65)" d="m0 0 4 1 1 4-5 4-9 5-15 9-7 3-11 9-5 3-6 3v-3l-4 2-1 2 4 1-12 7h-4l1-7 8-5 18-12 12-7 20-13 10-5zm-1 4-1 2h3v-2zm-22 14m-22 13-1 2 3-1zm-17 11-5 5 4-1 3-3z" fill="#B34D39"/>
<path transform="translate(1689,160)" d="m0 0h7l5 8 3 7 2 1 1-5 5-10 1-1h6l1 3-8 16-3 7-1 14h-7l-2-15-9-20-2-4z" fill="#080404"/>
<path transform="translate(1510,160)" d="m0 0h5l1 1v6l-1 1h-10v32h-8v-32l-11-1v-6z" fill="#080404"/>
<path transform="translate(1366,160)" d="m0 0h6l1 1v31l-3 8-2 1h-9l-2-1v-7l7 1v-32z" fill="#130907"/>
<path transform="translate(1912,160)" d="m0 0 3 1 1 32 13 1v6l-5 1h-15l-1-1-1-10v-28z" fill="#130C0A"/>
<path transform="translate(286,237)" d="m0 0 4 2-2 5-9 7-7 5-5 2 5 5 6 5-1 2-12-9-4 1 6 5-3 1-6-4-4 4-17 11-9 5-10 7-20 13-10 6 2 4-4-2-6-5 1-2 2 2h5l36-24h3l-1-3 4-1 8-4 6-5 4-1 2-2 3-2-1-2 3-1 2 1v-3l11-6 5-5 3-1 2 1v-3l5-3 1-3h3z" fill="#E8863B"/>
<path transform="translate(129,70)" d="m0 0 4 1 4 4 1 2-5 1-1 3h-8v2l-5 4-4 8-4 3-7-2-4-6 1-3 5-1 1-2-5 1 1-3 4-2 1-3h5v2l7-3 4-2v2h2l-1-3h2v-2zm0 2 3 3v-3zm-21 9-1 3 5 1-1-4zm4 4m1 4m-4 1-2 3h3z" fill="#C86E45"/>
<path transform="translate(46,143)" d="m0 0 2 2 5 10 9 6 23 10 8 5 6 7 4 11v21l-2 4h-3l2-14v-8l-4-11-5-6-17-9-15-6-8-5-6-9v-7z" fill="#E03E28"/>
<path transform="translate(364,196)" d="m0 0h3v3l3-1-1 6-5 5-1 6-9-2v2l5 2 5 3-1 4-2 1-1-4-2-1v-2l-6-2-8-5-3-2-2-4 6-1h10l4 1-1-3h-6l-6-2-5 1 1-3 16-1z" fill="#BF6829"/>
<path transform="translate(346,150)" d="m0 0 11 1 6 3 4 4-1 4h-28l-6-1h-2l2-6 3-3z" fill="#E03926"/>
<path transform="translate(249,229)" d="m0 0 3 1-1 3-3 2-2 10-3 5v3l-4 2v-2h-4l-3 5-3-1 1-9-8 2 2 8h-3v-4h-2l-1-4 4-1v-2l6-3 7-5 6-3h2v-2l4-1z" fill="#BE6A28"/>
<path transform="translate(1422,160)" d="m0 0 3 1v39h-8v-39z" fill="#0C0607"/>
<path transform="translate(29,126)" d="m0 0h7l5 3 3 5 4 4h-3l1 5-5 4-8 1-6-4-3-6v-6l3-5zm3 7-2 1 1 5h5l2-3-4-3zm-2 9m7 0-6 1 1 2h6l1-3z" fill="#E68339"/>
<path transform="translate(353,20)" d="m0 0h5l-4 2-2 5-3 1-2 5-8 8-6 12-4 12-5 10-2 8h-2l-1 8-4 10-3 8-2-1 2-9 9-26 10-25 6-10 7-9 7-8z" fill="#E14128"/>
<path transform="translate(162,99)" d="m0 0h2l5 5v2l-4 2-3-1 1-2-3 2v3l-13 8-9 6h-4l-5 2-1 4-5 2-1-7 8-5 5-2 4-4 5-3h3v2h2l-1-3 8-6 3-1zm-8 9-1 2h2zm-9 5-4 2-5 7 4-2 6-5zm-18 11 2 2v-2z" fill="#B74B31"/>
<path transform="translate(191,249)" d="m0 0m-4 1 4 1-1 3h15l9-2 3 9-2 2-11 1-15-5-9-5-1-3z" fill="#BA6827"/>
<path transform="translate(332,160)" d="m0 0 6 1 28 1-3 5 10 7v3l-3-1v-2l-6-2-3 1v-2h-5l-5-2-16-1-3-5z" fill="#C16228"/>
<path transform="translate(233,202)" d="m0 0 4 1-14 6-12 4-12 5-9 5-1 2h-2l-1 3h-2v2h-2l-1 3h-2l-1 10 1 2-3-1-1-2v-7l4-8 3-1 1-3 10-7 12-5 6-2h2l1-2 9-1z" fill="#BB6526"/>
<path transform="translate(155,56)" d="m0 0h4l2 4h-5l-1 1v5l-4 1-2 5-4 5-3-1-1-2-5 2-4-5 1-4 9-1 2 2v3h2l-2-4v-10h2v4h3v-2zm-6 6 1 2z" fill="#A74938"/>
<path transform="translate(218,134)" d="m0 0h2l3 11 4 9 7 8 8 6 2 1-1 3-6-1-9-6-6-7-4-8-2-13z" fill="#E8853A"/>
<path transform="translate(1793,72)" d="m0 0 2 1-7 8-8 20-5 13-3 5-1-4 7-24v-6l-2-2v-3l11-4z" fill="#0D0708"/>
<path transform="translate(284,140)" d="m0 0 3 3 9 15 4 6v19l2 7 2-1 1 7v8l-3 10v8l-3 1v-34l-1-5-1-18-5-10-8-14z" fill="#E77B37"/>
<path transform="translate(117,198)" d="m0 0 2 1 8 18 7 15 8 16 8 14 5 7 6 11 11 14 4 5-1 2-9-10-11-16-15-25-8-16-11-24-4-10z" fill="#E56C34"/>
<path transform="translate(201,26)" d="m0 0 5 1 2 3-1 4-9 2-2 5-6 1-5-4 1-7 1-2h5l1 2 4-1z" fill="#E8853A"/>
<path transform="translate(286,237)" d="m0 0 4 2-2 5-9 7-7 5-5 2 5 5 6 5-1 2-12-9-4 1 6 5-3 1-6-4-4 4-2-1v-3l3-2 2 1v-3l11-6 5-5 3-1 2 1v-3l5-3 1-3h3z" fill="#E98D41"/>
<path transform="translate(332,113)" d="m0 0 1 4-4 8-3 8h-2l-1 5-3 1-2 5-5 6h-2l-1 2 1-6 5-9v-2l-3 3-1-5h3l2-7 1 4 3-4 2 4 2-3h2l-1-6 4-4z" fill="#E78038"/>
<path transform="translate(200,13)" d="m0 0 6 5 7 4 9 9 8 7 9 11-1 2-18-18-15-10v-2l-9-3 2-4z" fill="#E56832"/>
<path transform="translate(359,20)" d="m0 0 4 2-3 2 1 3h-3l-2 7-4 5 5 1-1 5-7-2-2 9h-1l-1-11 2-4 1-3 3-4 4-7zm-1 5m-7 14m-1 1 1 2z" fill="#E3542D"/>
<path transform="translate(91,89)" d="m0 0 6 1 4 5v4l-9 5h-6l-3-5 7-8z" fill="#C15432"/>
<path transform="translate(1147,89)" d="m0 0h2l1 41 1 5-5-5-1-5v-30z" fill="#1C0E0B"/>
<path transform="translate(808,77)" d="m0 0v3l-8 10-13 20-4 8v14l1 4-4-2-2-4v-10l4-8 15-22 7-9z" fill="#12090A"/>
<path transform="translate(149,201)" d="m0 0 3 1-4 5 3 1v7h5l2 2v7h4v4l-3 2h-3l-7-14-7-10v-2zm4 16 1 4 2-1v-3z" fill="#392215"/>
<path transform="translate(69,123)" d="m0 0 4 2 5 5 2 4h2l10 13 11 19 9 17 2 5-1 3-11-22-12-19-9-12-10-11z" fill="#E46634"/>
<path transform="translate(115,69)" d="m0 0m-1 1 1 3-3 1v2l-10 5-1 2-6 3 4 5-1 2-1-3-6-1-2 5-5 5-2 1-1-4-6 2 5-5 11-7 11-8z" fill="#FEF49B"/>
<path transform="translate(1238,138)" d="m0 0 46 1 1 2-2 1h-45z" fill="#050304"/>
<path transform="translate(185,85)" d="m0 0h3l1 5 2 1-5 4 2 5-5 3-4-1 1-2h4v-3l-6 1-3 2-2-3 1-4 5-3 6 3-1-7z" fill="#A64B3A"/>
<path transform="translate(311,225)" d="m0 0m-1 1m-2 1 4 2-6 5-11 6-2 2 6 5v2h2v2l4 2 3 3-1 2-16-14-3-2 4-5z" fill="#E67A37"/>
<path transform="translate(223,140)" d="m0 0 2 1 5 10 9 10 4 4-1 3-5-2-10-10-4-8z" fill="#DC4328"/>
<path transform="translate(346,150)" d="m0 0 11 1 2 6-4 1h-8l-8-2-1-5z" fill="#E8853A"/>
<path transform="translate(76,103)" d="m0 0 4 1 2 5-12 7h-5l-2-4 3-3 7-4z" fill="#B8472E"/>
<path transform="translate(314,168)" d="m0 0 2 1-4 6v5h-6l-3 10-2 1-2-8v-11l2 2 10-1z" fill="#E03926"/>
<path transform="translate(144,51)" d="m0 0m-1 1 2 3-1 10-6 1 1-3h2l1-2 1-1h-4l-1 2-4-2v2l-5 1v2l-5 1v2l-5 2v2l-4-2 5-4zm-3 5-2 2h4v-2z" fill="#FBE890"/>
<path transform="translate(344,180)" d="m0 0h2l2 7 4 1v6h-8v2h-3l-5-5-3-2 4-4 7-1zm-4 7-1 3 2 1 4 1 1-4-1-1z" fill="#DB4127"/>
<path transform="translate(332,160)" d="m0 0 6 1 28 1-4 4h-27l-4-5z" fill="#E8853A"/>
<path transform="translate(315,156)" d="m0 0 3 1-4 5-4 7 5-3 3-5 1 3-3 4h-2l-2 5-7 2-5-1 2-7h5l6-10z" fill="#E8853A"/>
<path transform="translate(179,39)" d="m0 0 4 1 2 6 2 1-2 4h-2v2h-5v-5h-6l2-5 5-2z" fill="#A84C39"/>
<path transform="translate(107,85)" d="m0 0h3v2h2l2 4v5l-5 2-5-2-4-6 1-3zm2 5-2 3h3z" fill="#823D43"/>
<path transform="translate(349,206)" d="m0 0h16l-2 9-9-2v2l5 2 5 3-1 4-2 1-1-4-2-1v-2l-6-2-2-3 6-3 1-2h-7z" fill="#D73A27"/>
<path transform="translate(137,66)" d="m0 0h5l2 2v3h5l-4 6-3-1-1-2-5 2-4-5 1-4z" fill="#B54832"/>
<path transform="translate(1510,123)" d="m0 0 8 8-1 2-5-4 5 5 1 2-13 2-2-2z" fill="#0E080B"/>
<path transform="translate(1088,124)" d="m0 0h2l5 8 5 4-3 1h-13l1-5z" fill="#180B0A"/>
<path transform="translate(353,20)" d="m0 0h5l-4 2-2 5-3 1-2 5-10 10h-2l2-5 7-9 7-8z" fill="#E24B2B"/>
<path transform="translate(136,116)" d="m0 0h4l-2 4-7 6h-2l-1 4-5 2-1-7 8-5 5-2zm-9 8 2 2v-2z" fill="#8D4441"/>
<path transform="translate(1683,124)" d="m0 0 4 5 8 8h-16l1-5z" fill="#080508"/>
<path transform="translate(310,108)" d="m0 0 1 4-2 9v9l-1 4h-2v3l-3-1 1-11 4-15z" fill="#E2492B"/>
<path transform="translate(145,255)" d="m0 0 4 5 6 9 6 11 11 14 4 5-1 2-9-10-11-16-11-18z" fill="#E8853A"/>
<path transform="translate(175,110)" d="m0 0 4 1 6 7-1 3-10 5-2-2 1-6 4-2 4 4-3-6-3-2zm1 11 1 2z" fill="#462D1D"/>
<path transform="translate(286,237)" d="m0 0 4 2-2 5-9 7-7 5-5 1 3-5 5-4 3 1v-3l5-3 1-3h3z" fill="#EB944C"/>
<path transform="translate(890,124)" d="m0 0h2l1 5h2l7 7-8 1h-7l1-6z" fill="#110A0B"/>
<path transform="translate(200,13)" d="m0 0 6 5 7 4 6 7-5-2-5-3-4-1v-2l-9-3 2-4z" fill="#E14329"/>
<path transform="translate(145,185)" d="m0 0h3v8l-3 1 4 1-1 3-4 1-6-8v-4l4 2 3 3-1-5z" fill="#4B2D1A"/>
<path transform="translate(213,244)" d="m0 0h5l-2 1v2l-24 6-3-1 3-3z" fill="#BF6B29"/>
<path transform="translate(147,146)" d="m0 0 5 2 3 2-2 5-2 2-8-1 2-4h3l-2-5z" fill="#513525"/>
<path transform="translate(69,123)" d="m0 0 4 2 5 5 2 4h2l10 13-1 3-4-4-7-9-9-10z" fill="#E7723C"/>
<path transform="translate(234,119)" d="m0 0 3 2v7l2-1 2-7 5 1-4 7-3 3-6-3z" fill="#EA9346"/>
<path transform="translate(357,230)" d="m0 0 2 3 1 2h7l1 2 6 2v2h-11l-5-3-1-2z" fill="#D1452D"/>
<path transform="translate(808,77)" d="m0 0v3l-8 10-12 18h-2l2-5 14-20z" fill="#030203"/>
<path transform="translate(129,70)" d="m0 0 4 1 4 4 1 2-5 1-1 3h-3v-2h-2l-2-6h2v-2zm0 2 3 3v-3z" fill="#CA663A"/>
<path transform="translate(152,217)" d="m0 0 2 3h2v-2h2v6h4v4l-3 2h-3l-5-10z" fill="#3D2718"/>
<path transform="translate(284,140)" d="m0 0 3 3 9 15 4 6-1 19h-1l-1-17-5-10-8-14z" fill="#E98D41"/>
<path transform="translate(237,189)" d="m0 0 4 4v2l3 1-13 3h-7v-7h2l1 6 3-1 1-5h2l1 4h3z" fill="#EA9247"/>
<path transform="translate(340,83)" d="m0 0 1 3-4 1-1 5-5 11-4 2-1-2 3-3 4-9 1-4 2-3z" fill="#E67836"/>
<path transform="translate(144,161)" d="m0 0 6 2v2l-5 1v3l5-3-1 5-4 1-2-1v-2l-3-1 1-4z" fill="#412412"/>
<path transform="translate(1270,128)" d="m0 0 5 2 1 3 3 3h-17v-2l7-1z" fill="#100808"/>
<path transform="translate(239,51)" d="m0 0 5 5 10 18 3 6-1 2-8-13-6-11-3-5z" fill="#EFAB5B"/>
<path transform="translate(406,224)" d="m0 0 2 1-1 6-6 7-5 2 2-5 3-4z" fill="#D1412A"/>
<path transform="translate(161,53)" d="m0 0 4 1 3 2v2l-3 3-8 1-2 1-1-5 6 1v-3z" fill="#C95E34"/>
<path transform="translate(715,116)" d="m0 0 4 1-1 3-1 17-1-2h-2v-14z" fill="#1E1117"/>
<path transform="translate(101,200)" d="m0 0 2 1v14l-2 4h-3l2-14z" fill="#DE3C27"/>
<path transform="translate(345,207)" d="m0 0 12 1-2 4-6 2-5-3z" fill="#E8853A"/>
<path transform="translate(80,104)" d="m0 0 2 1h3l1 4-4 2v2l-9 3-4 2h-3l1-3 5-1 9-6z" fill="#EEA858"/>
<path transform="translate(263,95)" d="m0 0 3 4 12 25-1 3-9-17-5-12z" fill="#DF7138"/>
<path transform="translate(194,80)" d="m0 0 5 1 1 5-2 1v-3l-3 1v2h2l-1 3h-5v-6z" fill="#C65931"/>
<path transform="translate(201,26)" d="m0 0 5 1 2 3v3l-5-1-6 2 2-6z" fill="#BE4F30"/>
<path transform="translate(337,76)" d="m0 0 1 3-5 6-3 6-5-1 2-4 7-6 1-3z" fill="#E46131"/>
<path transform="translate(174,48)" d="m0 0h4v5l3 1-8 2v2l-4-1v-2h2l1-4h2z" fill="#EA9346"/>
<path transform="translate(160,127)" d="m0 0 5 1 3 3v4l-5 1-4-5z" fill="#211611"/>
<path transform="translate(199,228)" d="m0 0 5 4v4l-9 1v-4z" fill="#6B3F4F"/>
<path transform="translate(223,140)" d="m0 0 2 1 5 10-1 3v3l-4-4-2-5z" fill="#C13F2A"/>
<path transform="translate(191,231)" d="m0 0 1 2-1 4 2 1-9 3h-3l1-4 5-2z" fill="#FEF49B"/>
<path transform="translate(1199,115)" d="m0 0 3 1-1 6-1 16-2-1v-18z" fill="#170A0C"/>
<path transform="translate(379,247)" d="m0 0 5 1h3 3l1 2-3 4-6-1-3-4z" fill="#B83D2C"/>
<path transform="translate(198,120)" d="m0 0h2l6 12v3l-4-2-4-9z" fill="#EB9548"/>
<path transform="translate(360,192)" d="m0 0h4l2 2h2v2l-6 2-8-1 2-3z" fill="#E8853A"/>
<path transform="translate(185,135)" d="m0 0 5 1 6 4 2 3-6-1-6-3-2-3z" fill="#E98E42"/>
<path transform="translate(376,187)" d="m0 0h3l-1 6-2 2-6-1v-3z" fill="#E17B36"/>
<path transform="translate(253,126)" d="m0 0h3l-1 5-6 8h-2l1-5z" fill="#E79247"/>
<path transform="translate(1918,117)" d="m0 0h2l1 2 1 15-3-2-1-3z" fill="#160B0C"/>
<path transform="translate(189,30)" d="m0 0h2l4 7v3h-6l-3-4 4-1z" fill="#AE3A2C"/>
<path transform="translate(263,141)" d="m0 0 4 2-4 4-9 2v-3l8-4z" fill="#E58F4A"/>
<path transform="translate(325,119)" d="m0 0 3 1-1 3v4h-2l-1 4-3-2 1-5z" fill="#E03B27"/>
<path transform="translate(145,255)" d="m0 0 4 5 6 9 3 5v2l-3-1-11-18z" fill="#EEA355"/>
<path transform="translate(191,166)" d="m0 0h2l-2 4-6 2h-6v-3z" fill="#E8853A"/>
<path transform="translate(108,89)" d="m0 0h3v6l3 1-5 2-5-2-2-5h2v2h6z" fill="#DF7D3C"/>
<path transform="translate(1e3 115)" d="m0 0 3 3-2 5-1 14-2-3v-9l1-9z" fill="#241518"/>
<path transform="translate(175,116)" d="m0 0 4 2-3 5 2 1-5 2-1-6z" fill="#23150E"/>
<path transform="translate(197,179)" d="m0 0h2v3l-8 6h-4l1-3z" fill="#E8853F"/>
<path transform="translate(145,174)" d="m0 0 3 1-2 6h-7v-3z" fill="#322720"/>
<path transform="translate(123,124)" d="m0 0 5 1 1 4-4 3h-2l-1-7z" fill="#713D4B"/>
<path transform="translate(180,65)" d="m0 0 4 1 1 4-4 3-3-1 3-1v-2l-3 1-3-2z" fill="#BB4A2F"/>
<path transform="translate(349,206)" d="m0 0h16l-2 9h-2l-1-6 1-1h-11z" fill="#B1432B"/>
<path transform="translate(302,237)" d="m0 0 4 2 9 6 4 3v2l-5-2-12-9z" fill="#E77C37"/>
<path transform="translate(351,171)" d="m0 0 9 1 1 3h-14v-2z" fill="#BA6827"/>
<path transform="translate(116,127)" d="m0 0h4l1 5h2v3l-3 1-5-6z" fill="#A45943"/>
<path transform="translate(225,215)" d="m0 0 4 1 1 1v5l-4 1-2-4z" fill="#CA825E"/>
<path transform="translate(252,198)" d="m0 0 2 1v5l-5-1-7-2 4-2z" fill="#BA6827"/>
<path transform="translate(258,158)" d="m0 0h11v4h-10z" fill="#ECA758"/>
<path transform="translate(314,141)" d="m0 0 4 1-2 4-3 4h-2l-1 2 1-6z" fill="#E3562E"/>
<path transform="translate(154,135)" d="m0 0h7l1 4h-2v2h-2v-2h-5z" fill="#3F281A"/>
<path transform="translate(156,53)" d="m0 0m-2 1h2l-1 3-6 2-1 2h-2v-4h-2v-2h8z" fill="#E8853A"/>
<path transform="translate(651,121)" d="m0 0 2 1-1 11-2 3-1-1v-7z" fill="#1F0F14"/>
<path transform="translate(423,122)" d="m0 0h2v13l-2 1-1-2v-9z" fill="#14090B"/>
<path transform="translate(107,84)" d="m0 0 5 1 2 1v2l5-2-3 8-2 1-2-8h-2v-2z" fill="#E27F3B"/>
<path transform="translate(339,64)" d="m0 0 3 1v3 2l-3 1 1 2-1 2h-2v-2l-4-2 3-1 2-4z" fill="#E78038"/>
<path transform="translate(223,35)" d="m0 0 4 2 10 9 2 5-7-6-9-9z" fill="#E78239"/>
<path transform="translate(341,204)" d="m0 0 10 1-2 2-4 1-1 2-3-1-2-4z" fill="#C15E26"/>
<path transform="translate(206,188)" d="m0 0h2l-1 6-4 5h-2l1-5z" fill="#E98642"/>
<path transform="translate(1458,122)" d="m0 0h2v14l-3-3v-8z" fill="#0C0505"/>
<path transform="translate(808,77)" d="m0 0v3l-8 10-2 3h-2l2-4 6-8z" fill="#130809"/>
<path transform="translate(312,237)" d="m0 0 5 2 8 4v3l-4-1-9-7z" fill="#E46C33"/>
<path transform="translate(210,223)" d="m0 0 3 1 2 4v3l-5-2-2-2v-3z" fill="#704B5C"/>
<path transform="translate(257,172)" d="m0 0 7 1 3 3-1 2-9-3z" fill="#ED9F50"/>
<path transform="translate(227,115)" d="m0 0 3 1v10h-3l-1-9z" fill="#E56B33"/>
<path transform="translate(328,197)" d="m0 0 8 1 1 1v5l-7-4z" fill="#E03626"/>
<path transform="translate(145,185)" d="m0 0h3v8l-4 2-1-3h2l-1-5z" fill="#593D2E"/>
<path transform="translate(180,152)" d="m0 0 13 1v2h-13z" fill="#E8883C"/>
<path transform="translate(199,75)" d="m0 0 4 2 3 8-4 1-1-4-2-4z" fill="#DB7537"/>
<path transform="translate(265,258)" d="m0 0 6 4 7 6-1 2-13-10z" fill="#E56933"/>
<path transform="translate(222,199)" d="m0 0h10v1l-7 1-5 3-4-3z" fill="#C26D2A"/>
<path transform="translate(168,48)" d="m0 0 4 1-1 6-4-1-1-5z" fill="#AB3E2F"/>
<path transform="translate(233,202)" d="m0 0 4 1-14 6-4-1 12-5z" fill="#BA6827"/>
<path transform="translate(246,126)" d="m0 0h3l-1 4-4 4-2-3 1-3z" fill="#EDA153"/>
<path transform="translate(143,68)" d="m0 0 1 3h5l-4 6-3-1-1-4h2z" fill="#CD6333"/>
<path transform="translate(352,39)" d="m0 0 5 1-1 5-7-2 1-2z" fill="#E45E30"/>
<path transform="translate(295,245)" d="m0 0 4 2v2h2v2l4 2 3 3-1 2-8-7-4-4z" fill="#E78239"/>
<path transform="translate(233,211)" d="m0 0h2l2 3-1 4-4-1-1-4z" fill="#DA8048"/>
<path transform="translate(244,187)" d="m0 0 3 1 1 3 4 3-6 1-2-2-1-5z" fill="#E98C40"/>
<path transform="translate(256,136)" d="m0 0h2v5l-4 2h-3l1-4z" fill="#EFAA5A"/>
<path transform="translate(167,121)" d="m0 0 5 5v4h-3l-3-5z" fill="#382215"/>
<path transform="translate(69,123)" d="m0 0 4 2 5 5 2 4 2 1-3 1-7-8z" fill="#E99549"/>
<path transform="translate(217,220)" d="m0 0h2v2l3 1v3l-5 1-1-5z" fill="#834245"/>
<path transform="translate(319,144)" d="m0 0 2 1-1 5-4 4-1-5z" fill="#E78239"/>
<path transform="translate(239,51)" d="m0 0 5 5 4 7-1 2-4-4-4-8z" fill="#EB984A"/>
<path transform="translate(231,304)" d="m0 0 1 2-14 8 1-3 9-6z" fill="#E67135"/>
<path transform="translate(137,242)" d="m0 0 4 4 4 7-1 3-5-8-2-3z" fill="#E26030"/>
<path transform="translate(297,161)" d="m0 0 3 3-1 19h-1z" fill="#E98A40"/>
<path transform="translate(110,130)" d="m0 0 3 1 3 5 2 1v2h-4l-4-6z" fill="#C45731"/>
<path transform="translate(340,83)" d="m0 0 1 3-4 1-1 5h-2l-1-4 3-4z" fill="#E67135"/>
<path transform="translate(124,76)" d="m0 0h3v3l2 1-5 1v2l-5 3 2-4 3-5z" fill="#E8883D"/>
<path transform="translate(180,305)" d="m0 0 3 2h6l-1 4 2 3-4-2-6-5z" fill="#E77F38"/>
<path transform="translate(296,237)" d="m0 0 2 1-5 4 2 4-4-2-3-2z" fill="#E24A2B"/>
<path transform="translate(134,192)" d="m0 0 4 2 3 3v2l-5-1-2-3z" fill="#633E25"/>
<path transform="translate(331,181)" d="m0 0h6v4h-6l-2-1v-2z" fill="#DB3B26"/>
<path transform="translate(332,113)" d="m0 0 1 4-4 7-3-1 1-3 3-3z" fill="#E46431"/>
<path transform="translate(121,106)" d="m0 0 5 1-3 3-5 3-3-1 4-2z" fill="#D77239"/>
<path transform="translate(194,80)" d="m0 0 5 1 1 5-2 1v-3l-5-1z" fill="#C46236"/>
<path transform="translate(235,252)" d="m0 0 4 1v3l-5 3h-2l2-6z" fill="#BD4B2F"/>
<path transform="translate(213,244)" d="m0 0h5l-2 1v2l-7 1-4-2z" fill="#C26D2A"/>
<path transform="translate(355,215)" d="m0 0 9 5-1 4-2 1-1-4-2-1v-2l-4-2z" fill="#D64C2C"/>
<path transform="translate(162,99)" d="m0 0h2l5 5v2l-4-1-2-2-3 1 1-4z" fill="#754453"/>
<path transform="translate(204,13)" d="m0 0 6 2 4 3-1 2-8-4z" fill="#E56C33"/>
<path transform="translate(186,145)" d="m0 0h6l2 1v3l-7-1z" fill="#E48238"/>
<path transform="translate(1809,122)" d="m0 0h1v13l-2-1v-11z" fill="#0C0608"/>
<path transform="translate(488,122)" d="m0 0h1v13l-2-1v-11z" fill="#0D0808"/>
<path transform="translate(330,228)" d="m0 0 12 6-1 2h-2v-2l-4-1z" fill="#E36933"/>
<path transform="translate(189,159)" d="m0 0h3l-1 3-7 1-1-3z" fill="#E8893E"/>
<path transform="translate(152,139)" d="m0 0 4 3v3l-4-1-2-1v-3z" fill="#361F0E"/>
<path transform="translate(822,121)" d="m0 0h1v14l-2-2v-9z" fill="#150D0A"/>
<path transform="translate(208,124)" d="m0 0 3 1v6l-2 1-2-4z" fill="#E98E42"/>
<path transform="translate(211,317)" d="m0 0 2 1-9 6-4-1 4-2z" fill="#E56F34"/>
<path transform="translate(259,152)" d="m0 0h6v3h-8v-2z" fill="#EC994B"/>
<path transform="translate(201,185)" d="m0 0h3v2h-2l-2 4-3-1z" fill="#EA9147"/>
<path transform="translate(212,191)" d="m0 0 2 1v5h-4z" fill="#EDA253"/>
<path transform="translate(193,173)" d="m0 0h2v3l-3 2h-3v-3z" fill="#EB9649"/>
<path transform="translate(196,133)" d="m0 0h4l1 5-4-1z" fill="#EB974A"/>
<path transform="translate(1492,113)" d="m0 0h3v3h-8l1-2z" fill="#190B0C"/>
<path transform="translate(259,165)" d="m0 0 5 1v2l-5 1z" fill="#ED9F50"/>
<path transform="translate(217,193)" d="m0 0 3 1-1 5h-2z" fill="#EEA758"/>
<path transform="translate(305,247)" d="m0 0 4 2 3 4-4-2z" fill="#E67736"/>
<path transform="translate(745,137)" d="m0 0 4 2 1 3-4-2z" fill="#1D1315"/>
<path transform="translate(345,52)" d="m0 0 1 3-3 6-1-4z" fill="#E8853A"/>
<path transform="translate(261,283)" d="m0 0 2 1-3 4-3-1z" fill="#E77D38"/>
<path transform="translate(340,227)" d="m0 0 4 2 3 3-4-1z" fill="#E56F34"/>
<path transform="translate(236,301)" d="m0 0 2 1-2 2-4-1z" fill="#E8853A"/>
<path transform="translate(324,224)" d="m0 0 4 1 2 3-5-2z" fill="#DF5D30"/>
<path transform="translate(330,220)" d="m0 0 5 2 1 2-5-2z" fill="#E56D34"/>
<path transform="translate(344,49)" d="m0 0 1 2-2 4h-2v-2h2z" fill="#E8853A"/>
<path transform="translate(347,224)" d="m0 0h3l-1 3-3-1z" fill="#E46131"/>
<path transform="translate(141,172)" d="m0 0h3v2l-4 1z" fill="#5E3517"/>
<path transform="translate(1642,130)" d="m0 0 4 2v3z" fill="#52262E"/>
<path transform="translate(1489,122)" d="m0 0 2 1 1 6-2-2z" fill="#52262E"/>
<path transform="translate(171,97)" d="m0 0 2 1v2h-4v-2z" fill="#C75B32"/>
<path transform="translate(250,291)" d="m0 0v3l-4-1z" fill="#E8853A"/>
<path transform="translate(336,224)" d="m0 0 4 1v2l-4-2z" fill="#E77B37"/>
<path transform="translate(1901,138)" d="m0 0 1 2 4 2-5-1z" fill="#804F42"/>
<path transform="translate(896,125)" d="m0 0 3 3-1 2-2-2z" fill="#1C1524"/>
<path transform="translate(829,103)" d="m0 0 1 3-3 3z" fill="#29161E"/>
<path transform="translate(1480,98)" d="m0 0h2l1 5h-2z" fill="#4E291C"/>
<path transform="translate(267,268)" d="m0 0 4 4-4-2z" fill="#E8853A"/>
<path transform="translate(290,263)" d="m0 0h3v2l-4-1z" fill="#E8853A"/>
<path transform="translate(1518,133)" d="m0 0 3 2v2h-2z" fill="#1B0A08"/>
<path transform="translate(1687,126)" d="m0 0 4 2-1 2z" fill="#1B0A08"/>
<path transform="translate(770,98)" d="m0 0 3 2-1 3z" fill="#35180E"/>
<path transform="translate(215,314)" d="m0 0 2 1-4 2z" fill="#E8853A"/>
<path transform="translate(239,298)" d="m0 0 2 2-3 1z" fill="#E8853A"/>
<path transform="translate(333,237)" d="m0 0h4v2z" fill="#C15330"/>
<path transform="translate(1785,95)" d="m0 0 1 3-2 2z" fill="#79361C"/>
<path transform="translate(508,91)" d="m0 0h1v5l-2-3z" fill="#2C1B18"/>
<path transform="translate(248,286)" d="m0 0h2v2l-3-1z" fill="#E8853A"/>
<path transform="translate(254,282)" d="m0 0h2v2l-3-1z" fill="#E8853A"/>
<path transform="translate(265,281)" d="m0 0v3l-2-2z" fill="#E8853A"/>
<path transform="translate(286,266)" d="m0 0 2 1-4 1z" fill="#E8853A"/>
<path transform="translate(312,231)" d="m0 0 4 2-4-1z" fill="#E3552E"/>
<path transform="translate(203,224)" d="m0 0 1 3h-2z" fill="#FEF49B"/>
<path transform="translate(354,222)" d="m0 0h2l-1 3z" fill="#E8853A"/>
<path transform="translate(114,191)" d="m0 0 2 1-1 3z" fill="#E8853A"/>
<path transform="translate(1841,126)" d="m0 0 2 4-2-1z" fill="#1D1627"/>
<path transform="translate(520,126)" d="m0 0 2 4-2-1z" fill="#100C15"/>
<path transform="translate(1392,120)" d="m0 0 2 2-4-1z" fill="#622D37"/>
<path transform="translate(518,107)" d="m0 0 4 1-2 1z" fill="#030203"/>
<path transform="translate(1543,93)" d="m0 0 1 3-2 1z" fill="#542225"/>
<path transform="translate(576,92)" d="m0 0 1 3h-2z" fill="#471813"/>
<path transform="translate(1829,91)" d="m0 0h1v5h-1z" fill="#030203"/>
<path transform="translate(258,85)" d="m0 0 2 1-1 3z" fill="#F0B160"/>
<path transform="translate(99,85)" d="m0 0 3 1-3 1z" fill="#FEF49B"/>
<path transform="translate(204,308)" d="m0 0 2 2-3-1z" fill="#E8853A"/>
<path transform="translate(210,305)" d="m0 0 1 2-3-1z" fill="#E8853A"/>
<path transform="translate(226,301)" d="m0 0 2 1h-3z" fill="#E8853A"/>
<path transform="translate(238,293)" d="m0 0 2 1h-3z" fill="#E8853A"/>
<path transform="translate(252,289)" d="m0 0 2 1h-3z" fill="#E8853A"/>
<path transform="translate(233,289)" d="m0 0 3 1h-3z" fill="#E8853A"/>
<path transform="translate(254,288)" d="m0 0 3 1h-3z" fill="#E8853A"/>
<path transform="translate(283,273)" d="m0 0 2 1h-3z" fill="#E8853A"/>
<path transform="translate(286,247)" d="m0 0 3 1h-3z" fill="#E8853A"/>
<path transform="translate(328,241)" d="m0 0 3 1-3 1z" fill="#CB5F33"/>
<path transform="translate(309,235)" d="m0 0 3 1h-3z" fill="#E8853A"/>
<path transform="translate(319,228)" d="m0 0 3 1h-3z" fill="#E67135"/>
<path transform="translate(351,227)" d="m0 0 2 1h-3z" fill="#CB5F33"/>
<path transform="translate(1439,139)" d="m0 0 1 3-2-1z" fill="#943938"/>
<path transform="translate(1493,131)" d="m0 0 2 1-1 2z" fill="#523539"/>
<path transform="translate(989,120)" d="m0 0 2 2-3-1z" fill="#832C21"/>
<path transform="translate(189,117)" d="m0 0h2v2h-2z" fill="#DCB392"/>
<path transform="translate(1234,116)" d="m0 0 2 1h-3z" fill="#5E3515"/>
<path transform="translate(428,111)" d="m0 0h2v2h-2z" fill="#030203"/>
<path transform="translate(1840,106)" d="m0 0 2 1-1 2z" fill="#030203"/>
<path transform="translate(340,71)" d="m0 0 3 1h-3z" fill="#E8853A"/>
<path transform="translate(339,61)" d="m0 0v3z" fill="#E8853A"/>
<path transform="translate(358,32)" d="m0 0 2 3h-2z" fill="#E8853A"/>
<path transform="translate(198,306)" d="m0 0 3 1z" fill="#E8853A"/>
<path transform="translate(205,302)" d="m0 0h2l-1 2z" fill="#E8853A"/>
<path transform="translate(238,286)" d="m0 0 2 1-2 1z" fill="#E8853A"/>
<path transform="translate(187,284)" d="m0 0h2l-1 2z" fill="#FEF49B"/>
<path transform="translate(180,283)" d="m0 0" fill="#FEF49B"/>
<path transform="translate(261,279)" d="m0 0 2 1-2 1z" fill="#E8853A"/>
<path transform="translate(279,271)" d="m0 0h2l-1 2z" fill="#E8853A"/>
<path transform="translate(116,195)" d="m0 0" fill="#E8853A"/>
<path transform="translate(283,137)" d="m0 0" fill="#E8853A"/>
<path transform="translate(1750,130)" d="m0 0" fill="#191321"/>
<path transform="translate(456,128)" d="m0 0" fill="#191321"/>
<path transform="translate(854,125)" d="m0 0" fill="#52262E"/>
<path transform="translate(1423,119)" d="m0 0" fill="#79361C"/>
<path transform="translate(699,120)" d="m0 0h2l-1 2z" fill="#75271E"/>
<path transform="translate(1464,111)" d="m0 0 1 2-2-1z" fill="#191321"/>
<path transform="translate(1743,110)" d="m0 0" fill="#68374C"/>
<path transform="translate(1742,105)" d="m0 0" fill="#AE3A2C"/>
<path transform="translate(1741,95)" d="m0 0" fill="#B65828"/>
<path transform="translate(767,95)" d="m0 0h2l-1 2z" fill="#40240F"/>
<path transform="translate(842,93)" d="m0 0" fill="#3C1410"/>
<path transform="translate(257,82)" d="m0 0" fill="#EFAA5A"/>
<path transform="translate(340,58)" d="m0 0" fill="#E8853A"/>
<path transform="translate(362,26)" d="m0 0 2 1-2 1z" fill="#E8853A"/>
<path transform="translate(199,312)" d="m0 0" fill="#E8853A"/>
<path transform="translate(209,312)" d="m0 0 2 1z" fill="#E8853A"/>
<path transform="translate(218,306)" d="m0 0 2 1z" fill="#E8853A"/>
<path transform="translate(229,299)" d="m0 0 2 1z" fill="#E8853A"/>
<path transform="translate(241,298)" d="m0 0 2 1z" fill="#E8853A"/>
<path transform="translate(221,298)" d="m0 0 2 1z" fill="#E8853A"/>
<path transform="translate(244,296)" d="m0 0 2 1z" fill="#E8853A"/>
<path transform="translate(235,295)" d="m0 0 2 1z" fill="#E8853A"/>
<path transform="translate(241,291)" d="m0 0 2 1z" fill="#E8853A"/>
<path transform="translate(244,289)" d="m0 0 2 1z" fill="#E8853A"/>
<path transform="translate(182,284)" d="m0 0 2 1z" fill="#FEF49B"/>
<path transform="translate(244,283)" d="m0 0 2 1z" fill="#E8853A"/>
<path transform="translate(248,280)" d="m0 0 2 1z" fill="#E8853A"/>
<path transform="translate(274,279)" d="m0 0 2 1z" fill="#E8853A"/>
<path transform="translate(286,260)" d="m0 0 2 1z" fill="#E8853A"/>
<path transform="translate(329,235)" d="m0 0 2 1z" fill="#E8853A"/>
<path transform="translate(317,234)" d="m0 0 2 1z" fill="#E8853A"/>
<path transform="translate(307,234)" d="m0 0 2 1z" fill="#E45D30"/>
<path transform="translate(342,221)" d="m0 0 2 1z" fill="#E8853A"/>
<path transform="translate(347,218)" d="m0 0 2 1z" fill="#E8853A"/>
<path transform="translate(340,216)" d="m0 0 2 1z" fill="#E8853A"/>
<path transform="translate(342,215)" d="m0 0 2 1z" fill="#E8853A"/>
<path transform="translate(301,144)" d="m0 0" fill="#E8853A"/>
<path transform="translate(302,141)" d="m0 0" fill="#E8853A"/>
<path transform="translate(1230,141)" d="m0 0 2 1z" fill="#BA6827"/>
<path transform="translate(1232,140)" d="m0 0 2 1z" fill="#804F42"/>
<path transform="translate(458,132)" d="m0 0" fill="#581E17"/>
<path transform="translate(1280,131)" d="m0 0" fill="#B45129"/>
<path transform="translate(280,131)" d="m0 0" fill="#E8853A"/>
<path transform="translate(1843,130)" d="m0 0" fill="#AE3A2C"/>
<path transform="translate(522,130)" d="m0 0" fill="#46365D"/>
<path transform="translate(1492,129)" d="m0 0" fill="#030203"/>
<path transform="translate(279,129)" d="m0 0" fill="#E8853A"/>
<path transform="translate(1641,128)" d="m0 0" fill="#BA6827"/>
<path transform="translate(855,128)" d="m0 0" fill="#241C30"/>
<path transform="translate(278,127)" d="m0 0" fill="#E8853A"/>
<path transform="translate(519,124)" d="m0 0" fill="#030203"/>
<path transform="translate(455,124)" d="m0 0" fill="#BA6827"/>
<path transform="translate(1184,121)" d="m0 0 2 1z" fill="#BA6827"/>
<path transform="translate(1021,120)" d="m0 0" fill="#B45129"/>
<path transform="translate(1776,118)" d="m0 0" fill="#241C30"/>
<path transform="translate(1624,116)" d="m0 0 2 1z" fill="#5E3515"/>
<path transform="translate(76,116)" d="m0 0 2 1z" fill="#FEF49B"/>
<path transform="translate(1465,113)" d="m0 0" fill="#7A3844"/>
<path transform="translate(430,113)" d="m0 0" fill="#7A3844"/>
<path transform="translate(1890,113)" d="m0 0 2 1z" fill="#5E3515"/>
<path transform="translate(1423,113)" d="m0 0 2 1z" fill="#46365D"/>
<path transform="translate(683,108)" d="m0 0" fill="#B45129"/>
<path transform="translate(1313,102)" d="m0 0" fill="#BA6827"/>
<path transform="translate(1312,100)" d="m0 0" fill="#030203"/>
<path transform="translate(1765,99)" d="m0 0" fill="#B45129"/>
<path transform="translate(445,99)" d="m0 0" fill="#7A3844"/>
<path transform="translate(1830,96)" d="m0 0" fill="#AE3A2C"/>
<path transform="translate(509,96)" d="m0 0" fill="#7A3844"/>
<path transform="translate(1786,93)" d="m0 0" fill="#B45129"/>
<path transform="translate(727,94)" d="m0 0 2 1z" fill="#030203"/>
<path transform="translate(262,93)" d="m0 0" fill="#E8853A"/>
<path transform="translate(1787,91)" d="m0 0" fill="#B45129"/>
<path transform="translate(338,91)" d="m0 0" fill="#E8853A"/>
<path transform="translate(261,91)" d="m0 0" fill="#E8853A"/>
<path transform="translate(260,89)" d="m0 0" fill="#F3BC6A"/>
<path transform="translate(1789,86)" d="m0 0" fill="#7A3844"/>
<path transform="translate(1790,84)" d="m0 0" fill="#7A3844"/>
<path transform="translate(1791,82)" d="m0 0" fill="#AE3A2C"/>
<path transform="translate(1792,80)" d="m0 0" fill="#7A3844"/>
<path transform="translate(342,80)" d="m0 0" fill="#E8853A"/>
<path transform="translate(1794,77)" d="m0 0" fill="#241C30"/>
<path transform="translate(334,68)" d="m0 0 2 1z" fill="#E8853A"/>
<path transform="translate(347,55)" d="m0 0 2 1z" fill="#E8853A"/>
<path transform="translate(197,319)" d="m0 0" fill="#E8853A"/>
<path transform="translate(193,317)" d="m0 0" fill="#E8853A"/>
<path transform="translate(192,316)" d="m0 0" fill="#E8853A"/>
<path transform="translate(205,315)" d="m0 0" fill="#E8853A"/>
<path transform="translate(191,315)" d="m0 0" fill="#E8853A"/>
<path transform="translate(190,314)" d="m0 0" fill="#E8853A"/>
<path transform="translate(208,313)" d="m0 0" fill="#E8853A"/>
<path transform="translate(211,311)" d="m0 0" fill="#E8853A"/>
<path transform="translate(212,310)" d="m0 0" fill="#E8853A"/>
<path transform="translate(215,308)" d="m0 0" fill="#E8853A"/>
<path transform="translate(220,305)" d="m0 0" fill="#E8853A"/>
<path transform="translate(212,304)" d="m0 0" fill="#E8853A"/>
<path transform="translate(224,303)" d="m0 0" fill="#E8853A"/>
<path transform="translate(215,302)" d="m0 0" fill="#E8853A"/>
<path transform="translate(231,298)" d="m0 0" fill="#E8853A"/>
<path transform="translate(243,297)" d="m0 0" fill="#E8853A"/>
<path transform="translate(242,296)" d="m0 0" fill="#E8853A"/>
<path transform="translate(243,295)" d="m0 0" fill="#E8853A"/>
<path transform="translate(245,294)" d="m0 0" fill="#E8853A"/>
<path transform="translate(240,292)" d="m0 0" fill="#E8853A"/>
<path transform="translate(257,288)" d="m0 0" fill="#E8853A"/>
<path transform="translate(256,287)" d="m0 0" fill="#E8853A"/>
<path transform="translate(231,286)" d="m0 0" fill="#E8853A"/>
<path transform="translate(181,286)" d="m0 0" fill="#FEF49B"/>
<path transform="translate(263,285)" d="m0 0" fill="#E8853A"/>
<path transform="translate(210,285)" d="m0 0" fill="#FEF49B"/>
<path transform="translate(265,284)" d="m0 0" fill="#E8853A"/>
<path transform="translate(235,283)" d="m0 0" fill="#E8853A"/>
<path transform="translate(189,283)" d="m0 0" fill="#FEF49B"/>
<path transform="translate(243,282)" d="m0 0" fill="#E8853A"/>
<path transform="translate(225,281)" d="m0 0" fill="#FEF49B"/>
<path transform="translate(273,280)" d="m0 0" fill="#E8853A"/>
<path transform="translate(267,280)" d="m0 0" fill="#E8853A"/>
<path transform="translate(166,280)" d="m0 0" fill="#FEF49B"/>
<path transform="translate(268,279)" d="m0 0" fill="#E8853A"/>
<path transform="translate(257,278)" d="m0 0" fill="#E8853A"/>
<path transform="translate(254,276)" d="m0 0" fill="#E8853A"/>
<path transform="translate(246,274)" d="m0 0" fill="#E8853A"/>
<path transform="translate(248,273)" d="m0 0" fill="#E8853A"/>
<path transform="translate(289,270)" d="m0 0" fill="#E8853A"/>
<path transform="translate(278,270)" d="m0 0" fill="#E8853A"/>
<path transform="translate(290,269)" d="m0 0" fill="#E8853A"/>
<path transform="translate(293,267)" d="m0 0" fill="#E8853A"/>
<path transform="translate(251,265)" d="m0 0" fill="#E8853A"/>
<path transform="translate(277,260)" d="m0 0" fill="#E8853A"/>
<path transform="translate(281,257)" d="m0 0" fill="#E8853A"/>
<path transform="translate(291,251)" d="m0 0" fill="#E8853A"/>
<path transform="translate(290,250)" d="m0 0" fill="#E8853A"/>
<path transform="translate(289,249)" d="m0 0" fill="#E8853A"/>
<path transform="translate(280,243)" d="m0 0" fill="#FEF49B"/>
<path transform="translate(326,240)" d="m0 0" fill="#E8853A"/>
<path transform="translate(323,238)" d="m0 0" fill="#E8853A"/>
<path transform="translate(288,237)" d="m0 0" fill="#FEF49B"/>
<path transform="translate(332,236)" d="m0 0" fill="#E8853A"/>
<path transform="translate(319,235)" d="m0 0" fill="#E8853A"/>
<path transform="translate(316,233)" d="m0 0" fill="#E8853A"/>
<path transform="translate(204,227)" d="m0 0" fill="#FEF49B"/>
<path transform="translate(295,222)" d="m0 0" fill="#FEF49B"/>
<path transform="translate(221,220)" d="m0 0" fill="#FEFEFE"/>
<path transform="translate(329,219)" d="m0 0" fill="#E8853A"/>
<path transform="translate(220,219)" d="m0 0" fill="#FEFEFE"/>
<path transform="translate(321,152)" d="m0 0" fill="#E8853A"/>
<path transform="translate(309,152)" d="m0 0" fill="#E8853A"/>
<path transform="translate(322,149)" d="m0 0" fill="#E8853A"/>
<path transform="translate(320,142)" d="m0 0" fill="#E8853A"/>
<path transform="translate(322,139)" d="m0 0" fill="#E8853A"/>
<path transform="translate(282,136)" d="m0 0" fill="#E8853A"/>
<path transform="translate(281,134)" d="m0 0" fill="#E8853A"/>
<path transform="translate(523,132)" d="m0 0" fill="#BA6827"/>
<path transform="translate(457,131)" d="m0 0" fill="#030203"/>
<path transform="translate(1691,130)" d="m0 0" fill="#46365D"/>
<path transform="translate(1471,130)" d="m0 0" fill="#AE3A2C"/>
<path transform="translate(1279,130)" d="m0 0" fill="#AE3A2C"/>
<path transform="translate(899,130)" d="m0 0" fill="#AE3A2C"/>
<path transform="translate(856,130)" d="m0 0" fill="#AE3A2C"/>
<path transform="translate(436,130)" d="m0 0" fill="#AE3A2C"/>
<path transform="translate(1278,129)" d="m0 0" fill="#BA6827"/>
<path transform="translate(1277,128)" d="m0 0" fill="#030203"/>
<path transform="translate(1276,127)" d="m0 0" fill="#AE3A2C"/>
<path transform="translate(1020,119)" d="m0 0" fill="#BA6827"/>
<path transform="translate(1422,118)" d="m0 0" fill="#BA6827"/>
<path transform="translate(1421,115)" d="m0 0" fill="#BA6827"/>
<path transform="translate(25,115)" d="m0 0" fill="#E8853A"/>
<path transform="translate(78,114)" d="m0 0" fill="#FEF49B"/>
<path transform="translate(26,114)" d="m0 0" fill="#E8853A"/>
<path transform="translate(1638,113)" d="m0 0" fill="#030203"/>
<path transform="translate(27,113)" d="m0 0" fill="#E8853A"/>
<path transform="translate(1025,111)" d="m0 0" fill="#BA6827"/>
<path transform="translate(854,107)" d="m0 0" fill="#030203"/>
<path transform="translate(1766,103)" d="m0 0" fill="#BA6827"/>
<path transform="translate(1832,102)" d="m0 0" fill="#46365D"/>
<path transform="translate(511,102)" d="m0 0" fill="#46365D"/>
<path transform="translate(510,100)" d="m0 0" fill="#BA6827"/>
<path transform="translate(1764,98)" d="m0 0" fill="#BA6827"/>
<path transform="translate(1479,97)" d="m0 0" fill="#030203"/>
<path transform="translate(769,97)" d="m0 0" fill="#030203"/>
<path transform="translate(1419,94)" d="m0 0" fill="#BA6827"/>
<path transform="translate(767,93)" d="m0 0" fill="#BA6827"/>
<path transform="translate(1740,91)" d="m0 0" fill="#BA6827"/>
<path transform="translate(1788,89)" d="m0 0" fill="#BA6827"/>
<path transform="translate(338,88)" d="m0 0" fill="#E8853A"/>
<path transform="translate(1793,79)" d="m0 0" fill="#030203"/>
<path transform="translate(343,79)" d="m0 0" fill="#E8853A"/>
<path transform="translate(1795,76)" d="m0 0" fill="#AE3A2C"/>
<path transform="translate(809,76)" d="m0 0" fill="#030203"/>
<path transform="translate(115,74)" d="m0 0" fill="#FEF49B"/>
<path transform="translate(807,72)" d="m0 0" fill="#030203"/>
<path transform="translate(344,65)" d="m0 0" fill="#E8853A"/>
<path transform="translate(134,62)" d="m0 0" fill="#FEF49B"/>
<path transform="translate(339,57)" d="m0 0" fill="#E8853A"/>
<path transform="translate(351,56)" d="m0 0" fill="#E8853A"/>
<path transform="translate(349,56)" d="m0 0" fill="#E8853A"/>
<path transform="translate(346,56)" d="m0 0" fill="#E8853A"/>
<path transform="translate(215,21)" d="m0 0" fill="#AE3A2C"/>
<path transform="translate(214,20)" d="m0 0" fill="#E8853A"/>
</svg>
